<?xml version="1.0" standalone="no"?>
<!DOCTYPE svg PUBLIC "-//W3C//DTD SVG 20010904//EN"
 "http://www.w3.org/TR/2001/REC-SVG-20010904/DTD/svg10.dtd">
<svg version="1.0" xmlns="http://www.w3.org/2000/svg"
 width="750.000000pt" height="375.000000pt" viewBox="0 0 750.000000 375.000000"
 preserveAspectRatio="xMidYMid meet">

<g transform="translate(0.000000,375.000000) scale(0.100000,-0.100000)"
fill="#000000" stroke="none">
<path d="M0 2795 l0 -955 23 0 c12 0 42 10 67 21 64 31 117 40 131 23 9 -11 6
-18 -11 -32 -28 -23 -21 -37 21 -46 17 -3 44 -17 61 -31 16 -14 41 -25 54 -25
24 0 43 -24 30 -37 -3 -4 -48 -1 -100 6 -102 13 -136 9 -229 -31 l-47 -20 1
-837 c0 -509 4 -827 9 -814 5 13 17 23 26 23 16 0 16 -2 -1 -20 -18 -20 -17
-20 120 -20 l137 0 49 39 c44 35 55 39 107 39 36 0 77 8 112 23 47 19 71 22
164 20 61 -1 118 -7 129 -12 12 -7 23 -7 30 -1 25 20 174 61 215 59 28 -1 46
3 53 13 8 11 9 7 5 -18 -3 -17 -1 -44 5 -58 19 -51 7 -60 -104 -74 -56 -7
-109 -17 -117 -21 -8 -5 92 -9 223 -9 230 0 237 1 237 20 0 19 10 24 38 21 6
-1 12 5 12 13 0 10 46 36 65 36 8 0 14 -32 9 -45 -9 -24 -45 -40 -54 -25 -8
13 -30 5 -30 -11 0 -5 560 -9 1475 -9 1464 0 1475 0 1475 20 0 12 9 22 24 26
31 7 127 -12 152 -31 16 -12 81 -14 365 -15 l346 0 -5 32 c-2 18 -12 41 -20
51 -14 16 -14 19 -2 27 28 18 66 10 120 -25 41 -26 65 -35 98 -35 31 0 53 -7
76 -25 l33 -25 288 0 c262 0 287 1 281 16 -4 10 1 25 10 35 15 17 15 19 1 25
-9 3 -38 0 -64 -8 -42 -12 -56 -12 -118 3 -38 10 -82 18 -97 18 -36 1 -139 42
-132 52 3 5 14 9 25 9 10 0 19 6 19 14 0 8 8 17 18 20 37 11 102 10 114 -2 7
-7 25 -12 40 -12 15 0 61 -9 102 -20 70 -20 78 -20 128 -5 70 20 80 28 80 58
0 37 -33 86 -104 152 -77 72 -149 101 -210 85 -21 -6 -43 -8 -48 -5 -6 3 -10
1 -10 -5 0 -6 -16 -35 -35 -64 -40 -61 -41 -63 -18 -88 15 -17 15 -18 0 -18
-11 0 -17 -9 -18 -22 0 -22 -1 -22 -8 -3 -5 11 -4 22 0 23 5 2 9 9 9 16 0 8
-11 11 -32 8 -30 -5 -31 -4 -16 12 9 9 20 25 23 36 3 11 15 20 26 20 12 0 19
7 19 19 0 10 11 35 25 55 14 20 25 38 25 40 0 2 -56 2 -125 1 -87 -3 -139 -9
-170 -21 -24 -9 -51 -14 -59 -11 -8 3 -45 -7 -83 -23 -37 -16 -77 -30 -89 -30
-11 0 -37 -18 -57 -41 -29 -32 -43 -40 -64 -37 -26 3 -29 8 -38 61 -9 49 -16
63 -50 92 -31 27 -49 34 -82 35 -23 0 -45 -4 -48 -10 -3 -5 -11 -10 -16 -10
-19 0 34 59 60 65 28 8 77 16 101 18 17 0 43 29 66 71 11 20 14 41 9 75 -8 60
6 79 70 90 28 5 59 11 70 14 11 2 46 8 78 11 31 4 57 11 57 15 0 4 -19 12 -43
18 -32 9 -43 17 -44 32 -2 19 0 20 22 5 22 -14 23 -14 19 3 -3 10 1 26 9 37
16 21 68 30 79 13 11 -18 10 -39 -3 -32 -6 4 -5 -2 3 -14 7 -12 16 -21 20 -21
4 0 5 -9 3 -20 -5 -25 15 -26 22 -1 3 10 22 27 43 36 50 22 159 18 184 -8 24
-24 33 -21 39 11 4 16 16 32 31 39 15 6 24 7 20 2 -3 -5 2 -6 10 -3 9 3 16 11
16 16 0 6 19 8 45 6 25 -2 45 1 45 6 0 27 12 -8 14 -38 1 -32 -4 -40 -24 -38
-3 0 -6 -26 -6 -59 l-1 -59 33 -6 c39 -7 68 -34 38 -34 -11 -1 3 -9 30 -20 57
-22 87 -47 80 -65 -3 -7 -1 -16 5 -20 6 -3 11 -17 11 -31 0 -13 5 -24 10 -24
6 0 8 11 4 25 -4 15 -2 25 5 25 6 0 11 19 11 47 0 47 33 133 51 133 6 0 7 4 4
10 -3 5 2 11 12 12 100 8 123 -34 128 -237 1 -49 6 -109 10 -132 6 -36 4 -44
-12 -50 -25 -9 -72 -64 -73 -86 0 -10 -7 -33 -15 -52 -13 -33 -13 -36 8 -49
12 -8 56 -22 97 -31 41 -10 91 -23 110 -30 19 -7 73 -23 120 -36 100 -26 123
-42 118 -81 l-5 -28 108 0 c97 0 113 3 153 25 46 26 86 33 86 15 0 -6 -11 -15
-25 -20 -14 -5 -25 -12 -25 -15 0 -3 88 -5 195 -5 l195 0 0 273 0 274 -27 12
c-19 9 -29 9 -31 2 -6 -18 -22 -12 -22 8 0 23 -24 44 -44 39 -14 -3 -14 -6 -1
-32 9 -16 13 -31 10 -34 -3 -3 -27 -5 -53 -4 -43 2 -49 -1 -74 -35 -16 -20
-28 -42 -28 -49 0 -7 24 -22 53 -33 28 -11 51 -24 49 -30 -1 -6 4 -11 10 -11
7 0 5 -5 -5 -11 -16 -10 -90 -11 -301 -5 -49 1 -69 -23 -43 -52 23 -26 21 -37
-9 -51 -19 -8 -24 -16 -19 -29 4 -12 -3 -9 -22 9 -41 38 -86 51 -112 33 -18
-13 -21 -13 -21 -1 0 15 60 44 100 49 23 3 25 8 28 56 4 69 -8 84 -59 76 l-39
-7 0 42 c0 55 -36 121 -66 121 -6 0 -22 16 -35 34 -13 19 -34 40 -46 45 -15 7
-23 19 -23 35 0 23 -44 66 -67 66 -5 0 -19 17 -31 37 -32 57 -87 113 -111 113
-26 0 -78 22 -108 47 -23 18 -23 18 -5 66 24 62 88 100 168 98 54 -1 124 -24
124 -41 0 -6 8 -10 18 -10 35 0 117 -48 134 -78 14 -24 27 -31 64 -37 40 -6
48 -4 71 19 14 14 36 26 49 26 12 0 25 4 28 9 4 5 24 12 46 15 121 18 112 19
155 -18 22 -20 43 -36 47 -36 10 0 58 -49 58 -60 0 -5 20 -21 45 -36 25 -14
42 -30 39 -35 -3 -5 5 -8 18 -6 14 1 22 -3 20 -10 -1 -7 4 -13 12 -13 19 0 48
-29 41 -41 -4 -5 -1 -9 4 -9 8 0 11 445 11 1480 l0 1480 -322 0 -322 0 -43
-42 c-24 -23 -43 -49 -44 -58 0 -8 -13 -25 -30 -38 -37 -30 -38 -17 -1 14 15
13 23 24 17 24 -18 0 -93 -82 -88 -97 4 -9 0 -13 -8 -11 -8 2 -27 -7 -43 -20
-16 -12 -23 -22 -16 -22 10 0 10 -3 0 -15 -7 -8 -16 -12 -22 -9 -5 3 -15 0
-24 -6 -12 -10 -12 -16 -2 -28 8 -10 9 -13 2 -9 -7 4 -19 -4 -28 -18 -9 -14
-22 -25 -29 -24 -9 0 -9 2 1 6 6 2 12 11 12 19 0 8 5 14 10 14 6 0 10 5 10 12
0 6 -11 1 -25 -12 -14 -13 -25 -30 -25 -37 0 -8 -5 -11 -12 -7 -7 4 -8 3 -4
-4 4 -7 -12 -31 -39 -58 -25 -26 -55 -60 -67 -76 -11 -16 -23 -27 -26 -24 -2
3 1 12 8 21 7 9 11 17 9 19 -2 2 -14 -10 -27 -25 -16 -20 -19 -27 -8 -23 13 5
16 -2 16 -39 0 -34 5 -49 20 -60 11 -8 17 -17 13 -20 -3 -4 1 -7 10 -7 9 0 19
-5 23 -12 5 -8 0 -9 -16 -5 -16 4 -20 3 -12 -5 7 -7 19 -7 41 0 23 8 37 8 57
-2 17 -9 21 -16 12 -19 -16 -7 31 -10 147 -9 66 0 81 -2 55 -7 -45 -11 146
-17 353 -12 164 4 214 -8 236 -55 22 -48 -35 -115 -116 -137 -24 -6 -43 -15
-43 -20 0 -4 -6 -5 -12 -1 -7 4 -10 4 -6 -1 11 -12 -11 -35 -33 -35 -11 0 -19
7 -19 17 0 14 -12 15 -107 10 -58 -4 -185 -8 -282 -8 -106 -1 -160 -5 -136 -9
l40 -7 -46 -2 c-41 -1 -47 -4 -66 -38 l-22 -38 -10 25 c-5 14 -10 21 -10 15
-1 -18 37 -110 45 -111 20 -2 44 -17 44 -27 0 -5 -9 -2 -20 8 -11 10 -20 14
-20 9 1 -10 149 -132 214 -177 53 -36 126 -68 137 -61 5 3 8 0 7 -8 -2 -7 5
-12 14 -12 10 1 15 -2 12 -7 -5 -9 95 -59 119 -59 7 0 -1 9 -18 21 l-30 21 49
-7 c62 -8 77 -15 69 -28 -4 -6 0 -8 11 -4 10 4 15 3 11 -3 -6 -9 16 -15 40
-10 6 1 4 -4 -2 -11 -10 -10 -18 -10 -38 -1 -40 18 -65 14 -27 -5 61 -30 65
-72 11 -118 -42 -35 -104 -33 -232 6 -189 57 -241 82 -346 166 l-53 43 -79 -2
c-43 -2 -79 -6 -79 -10 0 -13 -69 -29 -153 -35 l-88 -6 -85 43 -85 43 -45 -21
c-25 -12 -42 -26 -39 -31 3 -5 0 -13 -6 -17 -8 -4 -9 -3 -5 4 12 19 -5 14 -56
-19 -26 -17 -46 -35 -43 -39 3 -5 0 -12 -6 -16 -8 -4 -9 -3 -5 4 14 23 -8 12
-77 -39 -121 -88 -227 -180 -220 -191 4 -7 1 -8 -6 -3 -17 10 -61 -33 -54 -54
4 -14 3 -14 -6 -1 -20 28 -158 -135 -296 -352 -56 -88 -172 -205 -187 -190
-14 14 -32 16 -24 3 3 -4 -6 -6 -21 -3 -21 4 -25 2 -20 -11 5 -13 -1 -15 -34
-12 -21 2 -39 0 -39 -4 0 -9 -57 -18 -159 -26 -37 -3 -72 -12 -81 -20 -19 -17
-70 -20 -70 -5 0 6 -9 10 -20 10 -11 0 -20 -5 -20 -11 0 -5 4 -7 10 -4 6 3 10
-1 10 -10 0 -12 -5 -15 -17 -10 -10 4 -26 10 -35 12 -10 3 -15 10 -11 16 4 6
-1 8 -14 5 -13 -3 -24 1 -32 13 -10 17 -8 19 26 18 38 -1 38 -1 8 -9 l-30 -8
31 -1 c17 0 33 2 37 5 10 10 -4 34 -22 35 -9 1 9 9 39 19 30 10 48 19 40 20
-8 2 23 9 70 16 l85 13 -98 -4 c-66 -2 -104 -8 -115 -18 -32 -26 -113 -59
-136 -55 -19 4 -23 1 -18 -11 5 -13 3 -14 -10 -4 -8 7 -18 10 -22 6 -4 -4 -4
0 0 10 6 16 -4 22 -28 18 -5 0 -8 8 -8 20 0 30 -20 12 -21 -19 -2 -30 -4 -18
-35 157 -15 89 -16 116 -6 196 18 141 32 196 58 222 12 12 37 44 55 70 18 27
39 57 48 69 9 11 3 5 -14 -14 -16 -19 -47 -53 -68 -76 l-39 -41 26 46 c34 60
33 74 0 25 -34 -50 -50 -102 -75 -251 -22 -134 -37 -184 -50 -164 -4 7 -5 17
-3 21 3 4 0 8 -5 8 -6 0 -11 -7 -11 -15 0 -9 -7 -18 -15 -21 -8 -4 -15 -13
-15 -22 0 -8 -2 -13 -5 -11 -6 7 40 267 70 393 28 120 45 140 162 182 41 15
70 30 66 33 -5 3 -2 13 7 21 13 13 39 17 74 11 6 0 -3 -15 -20 -33 l-29 -32
30 25 c34 26 48 34 209 109 98 45 266 137 409 224 78 47 237 160 282 201 23
21 27 27 10 15 l-30 -21 -8 25 c-5 16 -18 27 -39 31 -23 6 -27 9 -17 17 14 9
-86 6 -278 -8 -78 -6 -86 -4 -150 26 -74 34 -120 71 -134 109 -14 34 7 78 45
98 35 18 210 33 298 26 35 -4 58 -2 58 4 0 17 74 33 186 39 114 6 185 28 212
65 7 10 19 16 26 13 14 -5 31 12 31 31 0 6 7 10 16 10 27 0 129 94 122 112 -5
12 -3 14 7 8 9 -6 11 -4 6 4 -9 13 22 54 34 46 4 -3 11 2 14 11 3 8 2 12 -4 9
-6 -3 -10 1 -10 10 0 9 7 15 16 13 10 -2 19 3 22 11 3 8 0 11 -6 7 -6 -3 -14
-1 -18 5 -4 8 -3 9 4 5 7 -4 12 -1 12 8 0 8 4 18 10 21 6 3 8 -2 5 -12 -7 -24
51 97 60 127 5 15 4 20 -4 16 -15 -10 -14 5 5 49 12 29 18 35 25 24 5 -8 9 -9
9 -2 0 6 3 18 6 27 6 15 -248 16 -2835 16 l-2841 0 0 -955z m4000 825 c-18
-33 -25 -15 -9 22 9 23 15 28 17 16 2 -9 -2 -27 -8 -38z m1611 -33 c-10 -9
-11 -8 -5 6 3 10 9 15 12 12 3 -3 0 -11 -7 -18z m1083 -12 c-4 -8 -11 -15 -16
-15 -6 0 -5 6 2 15 7 8 14 15 16 15 2 0 1 -7 -2 -15z m-54 -55 c-6 -11 -16
-20 -22 -20 -6 0 -3 9 7 20 10 11 20 20 22 20 2 0 -1 -9 -7 -20z m-2680 0 c0
-24 -34 -90 -46 -90 -18 0 -18 2 9 55 21 42 37 57 37 35z m160 -60 c0 -22 -30
-80 -41 -80 -7 0 -8 7 -4 18 4 9 12 29 17 45 10 26 28 37 28 17z m2867 -47
c-15 -16 -17 -16 -17 -1 0 9 6 18 13 21 20 7 22 -2 4 -20z m-72 -73 c-3 -5
-13 -10 -21 -10 -8 0 -12 5 -9 10 3 6 13 10 21 10 8 0 12 -4 9 -10z m-2395 -9
c0 -12 -20 -25 -27 -18 -7 7 6 27 18 27 5 0 9 -4 9 -9z m940 -16 c-7 -8 -18
-15 -24 -15 -6 0 -23 -14 -39 -32 -26 -32 -27 -32 -13 -5 8 16 29 39 47 52 37
25 50 25 29 0z m-1510 -155 c0 -20 -5 -30 -15 -30 -15 0 -21 40 -8 53 14 15
23 6 23 -23z m-112 -158 c2 -12 12 -27 23 -32 15 -9 17 -15 9 -30 -6 -11 -17
-20 -25 -20 -7 0 -27 -8 -44 -17 -28 -16 -33 -16 -41 -3 -19 29 -3 109 19 96
4 -3 14 4 21 15 18 24 34 20 38 -9z m-1348 -151 c-5 -11 -19 -26 -29 -33 -16
-11 -7 -12 60 -9 113 5 125 -3 61 -40 -29 -16 -52 -31 -52 -33 0 -6 80 14 117
29 20 9 38 13 40 11 2 -2 -15 -20 -38 -39 -40 -35 -41 -36 -18 -41 91 -19 128
-30 159 -46 l35 -19 -65 -1 -65 -1 75 -22 c78 -23 160 -64 160 -79 0 -5 -5 -6
-10 -3 -11 7 -105 -12 -125 -24 -5 -3 17 -8 50 -11 l60 -5 -39 -24 -39 -25 46
-39 c26 -21 47 -43 47 -48 0 -5 -22 -9 -48 -9 -27 0 -57 -6 -67 -14 -18 -13
-17 -14 16 -21 29 -7 31 -9 14 -15 -11 -4 -28 -4 -37 1 -28 15 -142 24 -134
11 11 -19 -41 -27 -176 -27 -70 0 -124 -3 -120 -6 4 -3 28 -23 54 -43 26 -21
47 -41 46 -44 -4 -14 70 -82 75 -69 3 7 9 2 15 -13 7 -16 11 -19 11 -8 1 9
-22 38 -49 64 -45 43 -49 50 -34 61 13 9 21 9 40 -4 13 -8 24 -19 24 -24 0 -5
-11 -2 -25 7 -14 9 -27 15 -29 13 -2 -2 12 -14 30 -26 32 -21 34 -21 34 -3 0
10 -12 28 -27 39 -24 20 -28 20 -51 5 -17 -11 -27 -13 -35 -5 -21 21 9 32 94
37 63 4 99 1 141 -12 32 -9 55 -20 53 -25 -3 -4 3 -5 13 -2 24 6 69 -41 50
-53 -7 -5 -17 -9 -23 -9 -14 -1 -7 -36 11 -56 16 -18 19 -33 4 -24 -5 3 -10
-1 -10 -9 0 -8 10 -20 21 -27 20 -10 21 -9 17 20 -2 17 -1 31 3 31 4 0 9 -24
11 -54 l3 -53 -30 10 c-16 6 -49 32 -72 57 -23 26 -58 57 -77 71 -20 13 -40
37 -46 54 -12 33 -48 75 -64 75 -6 0 -4 -6 4 -13 30 -23 50 -62 50 -97 0 -23
3 -30 9 -21 12 19 36 4 103 -66 31 -33 73 -66 94 -74 31 -12 38 -20 40 -43 0
-15 6 -31 11 -34 6 -4 34 -28 61 -54 l51 -48 -50 -86 c-27 -48 -81 -120 -119
-161 -38 -41 -90 -102 -116 -136 -55 -73 -55 -88 4 -193 61 -111 63 -143 6
-83 -16 17 -51 47 -79 67 -73 53 -170 145 -167 159 5 21 -7 15 -81 -42 -101
-78 -112 -76 -166 40 -21 46 -48 88 -60 94 -13 7 -21 22 -21 36 0 21 -5 25
-30 25 -23 0 -33 7 -45 30 -15 30 -25 34 -99 44 -21 3 -41 7 -43 10 -3 3 2 33
11 68 9 36 16 86 16 113 0 45 -4 53 -40 85 -37 33 -40 41 -56 130 -24 133 -27
167 -20 196 4 14 12 24 19 22 7 -2 28 12 47 31 33 32 33 34 10 28 -14 -4 -44
-7 -67 -7 l-43 0 0 -44 c0 -24 -7 -61 -16 -82 -22 -52 -14 -142 19 -224 22
-55 23 -61 6 -41 -27 33 -50 119 -50 191 l-1 60 -28 -30 c-15 -16 -31 -30 -35
-30 -4 0 9 18 29 40 20 22 36 42 36 45 0 2 -21 11 -47 19 -27 8 -38 15 -26 15
12 1 34 -4 50 -9 28 -10 28 -10 7 7 -11 10 -38 32 -59 49 l-39 31 17 89 c20
101 21 142 7 178 -5 14 -7 26 -4 26 7 0 64 -122 65 -140 2 -39 18 31 20 85 l2
60 10 -53 10 -54 34 59 c19 32 32 47 29 33 -4 -14 5 -1 19 29 40 87 68 115
147 154 117 57 132 57 73 2 -27 -26 -39 -40 -25 -31 47 31 105 55 170 70 36 8
96 22 134 30 37 9 87 27 110 40 51 30 59 31 46 7z m1240 0 c0 -10 -7 -24 -15
-31 -13 -10 -15 -9 -15 12 0 14 3 28 7 31 12 13 23 7 23 -12z m35 -105 c11
-20 12 -33 5 -46 -6 -10 -10 -28 -10 -39 0 -12 -6 -21 -14 -21 -8 0 -17 -8
-20 -17 -4 -10 -37 -39 -76 -65 -58 -40 -74 -47 -100 -42 -67 14 -81 98 -29
174 34 49 61 66 130 79 70 13 98 8 114 -23z m1345 0 c0 -2 -7 -7 -16 -10 -8
-3 -12 -2 -9 4 6 10 25 14 25 6z m1340 -96 c0 -13 -1 -13 -10 0 -5 8 -10 22
-10 30 0 13 1 13 10 0 5 -8 10 -22 10 -30z m-4619 -57 c-12 -20 -14 -14 -5 12
4 9 9 14 11 11 3 -2 0 -13 -6 -23z m5209 -153 c0 -5 -7 -7 -15 -4 -8 4 -15 8
-15 10 0 2 7 4 15 4 8 0 15 -4 15 -10z m-2570 -64 c0 -19 -44 -50 -48 -36 -4
12 26 50 40 50 4 0 8 -6 8 -14z m1385 -6 c3 -6 -1 -7 -9 -4 -18 7 -21 14 -7
14 6 0 13 -4 16 -10z m1017 -7 c-10 -4 -10 -8 0 -21 12 -15 11 -16 -4 -3 -19
14 -15 32 5 30 8 0 8 -2 -1 -6z m-489 -20 c-7 -2 -21 -2 -30 0 -10 3 -4 5 12
5 17 0 24 -2 18 -5z m622 -3 c3 -5 -1 -10 -9 -10 -9 0 -16 5 -16 10 0 6 4 10
9 10 6 0 13 -4 16 -10z m-584 -17 c13 -16 12 -17 -3 -4 -10 7 -18 15 -18 17 0
8 8 3 21 -13z m-235 -28 c-16 -17 -46 -20 -46 -6 0 9 20 17 48 20 10 1 10 -3
-2 -14z m-3385 -23 c40 -17 50 -29 24 -29 -8 0 -15 4 -15 8 0 3 -9 9 -21 12
-17 5 -15 0 10 -24 17 -16 31 -35 31 -41 0 -7 -14 3 -31 22 -18 21 -32 30 -35
23 -4 -9 -14 -8 -39 3 -19 8 -44 14 -55 14 -31 0 -24 16 13 28 36 12 62 8 118
-16z m3666 -4 c-9 -6 -8 -8 2 -8 8 0 12 -3 8 -6 -3 -3 -14 -1 -24 5 -12 7 -13
10 -4 11 11 0 11 3 0 17 -13 15 -12 15 8 2 16 -9 19 -16 10 -21z m-4597 -12
c0 -11 -19 -15 -25 -6 -3 5 1 10 9 10 9 0 16 -2 16 -4z m565 -6 c-3 -5 -12 -7
-20 -3 -21 7 -19 13 6 13 11 0 18 -4 14 -10z m905 -49 c0 -21 -23 -44 -33 -34
-11 10 -8 38 5 51 14 14 28 6 28 -17z m3297 -24 c-1 -7 17 -12 45 -13 26 -1
66 -11 88 -23 23 -12 38 -16 35 -10 -5 8 -1 7 15 -1 12 -6 52 -15 89 -19 62
-7 64 -8 38 -19 -20 -9 -52 -9 -115 -2 -140 15 -161 20 -155 36 4 10 -4 14
-31 14 -23 0 -35 4 -33 13 1 6 -6 11 -15 11 -23 -2 -23 5 -1 21 19 14 44 9 40
-8z m-1112 3 c-3 -5 -1 -10 6 -10 7 0 10 -3 6 -6 -9 -9 -28 6 -22 17 4 5 8 9
11 9 3 0 2 -4 -1 -10z m-3726 -57 c-1 -10 3 -38 10 -62 7 -23 10 -46 7 -49 -3
-3 -6 2 -6 11 0 10 -4 17 -10 17 -5 0 -7 6 -4 14 3 8 1 23 -5 34 -6 12 -8 28
-5 36 8 21 16 20 13 -1z m5198 -20 c-4 -3 -1 -13 6 -21 10 -13 9 -14 -3 -10
-19 6 -26 38 -9 38 7 0 9 -3 6 -7z m-342 -13 c3 -5 -3 -10 -15 -10 -12 0 -18
5 -15 10 3 6 10 10 15 10 5 0 12 -4 15 -10z m-740 -10 c-3 -6 4 -10 17 -10 13
0 31 -7 41 -14 15 -12 16 -15 2 -26 -13 -11 -15 -10 -9 6 4 15 4 16 -4 5 -6
-8 -8 -21 -4 -29 4 -12 0 -14 -16 -10 -17 5 -22 2 -23 -15 0 -12 -3 -16 -6
-10 -3 10 -8 9 -20 -2 -8 -8 -21 -15 -29 -15 -19 0 -15 40 6 57 13 11 13 12
-2 13 -27 0 -22 12 15 37 37 25 40 27 32 13z m-2005 -147 c-15 -71 -36 -168
-46 -217 -12 -62 -20 -83 -25 -70 -7 18 -8 18 -8 1 -1 -10 -5 -15 -11 -12 -5
3 -10 0 -10 -7 0 -9 -3 -9 -10 2 -8 12 -10 12 -10 -5 0 -17 -2 -17 -10 -5 -8
13 -10 12 -10 -4 0 -12 -5 -16 -15 -12 -12 4 -15 -5 -16 -47 -1 -29 -4 -43 -6
-32 -3 10 -2 103 2 205 l7 185 37 34 c28 27 147 111 156 111 1 0 -10 -57 -25
-127z m-133 40 c-19 -16 -40 -38 -45 -49 -6 -12 -14 -102 -18 -200 -5 -109
-11 -165 -15 -144 l-6 35 -3 -30 c-2 -22 -4 -25 -7 -9 -4 19 -7 20 -43 11 -35
-10 -42 -8 -74 17 -23 17 -36 22 -37 14 0 -7 -4 -4 -8 6 -4 11 -3 36 3 57 10
39 2 64 -14 39 -7 -12 -11 -12 -27 1 -16 13 -17 12 -5 -3 9 -11 9 -17 2 -20
-6 -2 -12 -11 -14 -20 -1 -10 -6 -21 -10 -25 -4 -4 -7 -3 -6 2 5 21 -1 29 -10
15 -5 -8 -13 -11 -17 -6 -4 4 0 14 10 21 10 7 14 16 9 19 -14 8 -35 -21 -28
-39 3 -9 -3 -19 -14 -25 -25 -14 -37 -13 -22 2 7 7 11 23 11 38 -2 23 -2 23
-6 3 -2 -13 -11 -23 -18 -23 -11 0 -10 12 6 57 11 32 18 66 17 77 -2 14 5 22
22 27 17 5 19 7 7 8 -42 2 -6 27 49 34 32 4 73 12 89 17 26 8 28 8 13 -4 -10
-7 -14 -17 -10 -21 4 -5 1 -5 -6 -1 -9 6 -11 1 -8 -19 3 -15 7 -30 10 -32 3
-3 21 29 40 70 20 41 42 80 50 86 11 9 115 35 160 40 5 1 -7 -11 -27 -26z
m2673 -27 c0 -8 -14 -19 -31 -25 -42 -14 -49 -14 -49 3 0 8 17 18 38 24 20 5
38 10 40 11 1 1 2 -5 2 -13z m-788 -48 c-6 -6 -16 -8 -22 -6 -9 3 -7 9 6 22
13 13 19 15 22 6 2 -6 0 -16 -6 -22z m-2550 -23 c8 -15 5 -14 -14 5 -13 14
-22 29 -20 34 5 8 13 -2 34 -39z m-104 -14 c-18 -22 -36 -37 -40 -35 -6 4 60
73 70 74 2 0 -12 -18 -30 -39z m79 -7 c3 3 0 6 -7 6 -7 0 -11 2 -8 5 3 3 18
-1 34 -10 16 -8 23 -15 16 -15 -9 0 -10 -6 -4 -17 12 -26 11 -32 -41 -146 -19
-42 -33 -63 -38 -55 -4 7 -6 -9 -4 -35 1 -26 -1 -50 -6 -53 -5 -3 -10 10 -10
28 -1 20 -3 26 -6 14 -3 -11 -11 -26 -19 -34 -8 -7 -14 -20 -14 -29 0 -13 2
-14 18 -2 15 13 16 12 4 -3 -15 -18 -8 -58 10 -58 5 0 12 9 15 20 5 18 6 18
22 3 15 -15 16 -15 19 3 2 10 8 24 14 29 6 6 7 4 3 -7 -4 -10 -3 -18 3 -18 6
0 4 -16 -4 -40 -8 -21 -11 -45 -9 -52 3 -8 -1 -22 -10 -33 -12 -16 -14 -17 -9
-2 8 24 -4 21 -28 -5 -11 -13 -17 -18 -14 -12 3 6 -2 23 -9 38 -20 37 -37 149
-29 182 5 20 3 25 -7 22 -14 -5 -16 -10 -18 -63 -1 -24 -6 -31 -22 -31 -17 0
-20 5 -15 29 5 26 5 27 -11 12 -9 -9 -27 -21 -40 -26 -14 -5 -23 -17 -23 -30
0 -18 -5 -21 -30 -17 -16 3 -30 0 -30 -4 0 -14 -27 -38 -34 -31 -3 3 -14 -4
-25 -15 -10 -12 -24 -22 -31 -22 -10 0 -10 -3 0 -15 10 -12 9 -16 -6 -22 -11
-3 -22 -11 -26 -17 -5 -7 -8 -5 -8 4 0 22 49 92 60 85 6 -3 7 0 5 8 -3 7 4 22
16 33 13 10 19 13 14 5 -5 -10 -4 -12 4 -7 6 4 9 12 5 17 -3 5 21 37 54 72 33
34 84 103 114 152 76 126 102 165 111 165 5 0 5 -4 2 -10 -3 -5 -1 -10 4 -10
6 0 11 7 11 16 0 14 3 14 15 4 9 -7 18 -10 22 -6z m2825 -7 c13 -20 9 -114 -4
-124 -7 -6 -32 -13 -54 -17 -51 -7 -69 10 -68 66 2 51 54 103 94 93 14 -4 28
-12 32 -18z m-762 -1 c0 -2 -8 -10 -17 -17 -16 -13 -17 -12 -4 4 13 16 21 21
21 13z m-2006 -46 c-6 -6 -10 -3 -10 10 0 13 4 16 10 10 7 -7 7 -13 0 -20z
m85 -24 c-2 -2 -13 8 -23 22 l-19 27 24 -22 c12 -12 21 -24 18 -27z m71 9
c-19 -19 -28 -35 -21 -35 13 0 12 -26 -4 -75 -6 -19 -6 -19 8 -2 19 23 27 22
28 -5 1 -14 5 -7 10 16 5 22 14 45 19 51 5 7 7 15 3 18 -3 4 -11 -1 -18 -10
-11 -14 -12 -14 -18 6 -3 11 0 24 5 28 7 4 8 1 3 -7 -5 -8 -3 -11 6 -8 8 3 13
11 12 17 -2 6 2 11 8 11 6 0 8 -8 5 -17 -5 -15 -4 -15 9 1 19 25 20 27 -14
-78 -20 -66 -29 -84 -33 -68 -4 14 -11 20 -21 16 -8 -3 -17 2 -20 10 -4 9 -13
13 -20 10 -19 -7 -31 26 -16 40 9 8 10 7 6 -6 -11 -31 18 -20 30 12 6 16 8 29
5 28 -24 -3 -21 7 13 42 21 22 41 40 44 40 3 0 -10 -16 -29 -35z m-135 -5 c-3
-5 -2 -10 3 -10 5 0 14 -15 20 -32 9 -30 11 -31 17 -11 4 12 13 24 20 27 8 3
2 -15 -13 -39 -15 -25 -32 -43 -38 -40 -13 4 -76 -63 -70 -74 2 -3 -3 -15 -11
-26 -15 -19 -15 -19 -10 5 6 24 5 24 -8 6 -13 -17 -15 -17 -15 -4 0 9 6 23 13
30 6 7 13 18 14 25 6 29 53 123 63 123 6 0 6 -7 -2 -21 -11 -17 -10 -22 6 -35
11 -7 22 -11 25 -8 3 3 -3 12 -13 20 -15 11 -17 16 -7 28 8 10 9 16 1 21 -13
8 -13 25 1 25 5 0 7 -4 4 -10z m1926 -47 c-11 -16 -11 -15 -5 6 4 17 3 21 -6
16 -9 -6 -11 -4 -5 4 5 9 11 9 17 3 7 -7 6 -16 -1 -29z m-31 -13 c-12 -7 -12
-11 1 -26 13 -16 12 -17 -9 -12 -14 4 -22 2 -21 -5 3 -25 -1 -38 -11 -32 -10
6 -13 -5 -11 -35 0 -10 -1 -11 -5 -2 -3 6 -10 9 -16 6 -5 -4 -2 5 7 20 10 14
22 26 27 26 5 0 6 5 3 10 -7 12 34 74 43 65 4 -3 0 -10 -8 -15z m60 -44 c0
-18 -27 -46 -45 -46 -7 0 -15 9 -18 20 -4 14 2 22 22 29 37 13 41 13 41 -3z
m-3952 -41 c2 -10 -2 -21 -10 -26 -10 -7 -9 -9 5 -9 14 0 17 -9 17 -52 1 -84
16 -140 41 -161 24 -19 24 -19 30 4 4 13 7 47 8 76 1 50 2 52 24 44 15 -5 24
-19 28 -42 l6 -34 2 35 2 35 14 -25 c8 -14 14 -36 15 -50 0 -14 9 -31 20 -37
10 -7 25 -31 31 -54 11 -36 52 -79 64 -67 3 2 9 29 15 58 12 62 12 62 34 54
19 -7 20 -30 4 -122 -9 -54 -9 -78 1 -114 l13 -46 67 -7 c36 -5 137 -7 224 -7
86 1 157 -1 157 -4 0 -4 -22 -31 -50 -61 -53 -58 -68 -95 -71 -180 -2 -48 -8
-58 -31 -54 -17 2 -7 -17 15 -28 31 -16 3 -7 -118 41 -190 74 -238 86 -385 91
-81 2 -119 1 -95 -4 22 -4 60 -8 84 -8 50 -1 50 -11 -1 -15 -106 -10 -138 -31
-138 -94 0 -44 -24 -52 -58 -19 -37 34 -85 57 -122 57 -21 0 -30 5 -32 18 -4
53 -3 57 27 63 25 6 23 7 -17 8 -37 1 -48 5 -53 20 -4 13 -13 18 -25 16 -39
-7 -19 12 28 28 l47 16 -44 -2 c-40 -2 -47 1 -68 32 -28 42 -29 56 -2 79 12 9
37 32 58 49 20 18 41 33 46 33 6 0 37 11 70 25 l60 24 6 -22 c12 -46 19 111
10 213 -10 106 -5 190 10 190 5 0 6 7 3 15 -8 21 3 48 19 43 6 -3 14 -13 15
-23z m1989 -29 c-12 -30 -25 -52 -30 -49 -5 3 -4 10 1 15 6 6 8 16 5 24 -5 13
26 63 39 64 3 0 -3 -24 -15 -54z m43 14 c0 -11 -4 -20 -9 -20 -5 0 -7 9 -4 20
3 11 7 20 9 20 2 0 4 -9 4 -20z m2924 11 c8 -13 -22 -68 -40 -75 -9 -3 -14
-13 -11 -20 4 -10 0 -14 -12 -13 -23 1 -16 54 9 67 10 6 22 19 25 30 7 21 20
26 29 11z m26 -3 c0 -7 -4 -19 -9 -27 -7 -10 -9 -7 -8 12 2 26 17 39 17 15z
m-952 -10 c-3 -7 -13 -15 -24 -17 -16 -3 -17 -1 -5 13 16 19 34 21 29 4z
m-1891 -50 c-3 -7 -5 -2 -5 12 0 14 2 19 5 13 2 -7 2 -19 0 -25z m-117 16 c0
-3 -7 -12 -15 -20 -16 -17 -18 -14 -9 10 6 15 24 23 24 10z m297 -16 c-3 -8
-6 -5 -6 6 -1 11 2 17 5 13 3 -3 4 -12 1 -19z m-1617 -7 c0 -11 5 -21 12 -23
18 -6 -19 -91 -55 -126 -18 -17 -45 -32 -62 -34 -29 -3 -30 -2 -27 36 4 48 23
80 76 128 47 43 56 46 56 19z m-572 -25 c3 -12 -1 -17 -10 -14 -7 3 -15 13
-16 22 -3 12 1 17 10 14 7 -3 15 -13 16 -22z m1761 -13 c0 -25 -1 -25 -8 -8
-5 11 -7 23 -4 28 8 14 13 7 12 -20z m238 -5 c-3 -8 -6 -5 -6 6 -1 11 2 17 5
13 3 -3 4 -12 1 -19z m30 -15 c-3 -10 -5 -4 -5 12 0 17 2 24 5 18 2 -7 2 -21
0 -30z m380 0 c-3 -10 -5 -4 -5 12 0 17 2 24 5 18 2 -7 2 -21 0 -30z m-2181
-110 c-11 -11 -19 6 -11 24 8 17 8 17 12 0 3 -10 2 -21 -1 -24z m1585 0 c-12
-20 -14 -14 -5 12 4 9 9 14 11 11 3 -2 0 -13 -6 -23z m3529 -47 c0 -8 -7 -16
-15 -20 -15 -5 -21 14 -8 27 11 12 23 8 23 -7z m-895 -6 c-3 -5 -11 -10 -16
-10 -6 0 -7 5 -4 10 3 6 11 10 16 10 6 0 7 -4 4 -10z m45 -19 c0 -8 -62 -32
-68 -26 -9 8 42 43 55 38 7 -3 13 -8 13 -12z m580 9 c0 -5 -9 -14 -21 -20 -19
-11 -20 -10 -9 9 11 22 30 29 30 11z m-6026 -22 c5 -9 7 -21 3 -25 -5 -4 -11
-2 -15 4 -4 7 -46 15 -92 19 -98 9 -77 24 29 21 48 -2 67 -6 75 -19z m3936 -8
c0 -11 -7 -20 -15 -20 -8 0 -15 9 -15 20 0 11 7 20 15 20 8 0 15 -9 15 -20z
m-424 -1 c8 -14 -11 -33 -25 -25 -11 7 -4 36 9 36 5 0 12 -5 16 -11z m2716
-54 c-9 -31 -32 -47 -32 -21 0 14 30 55 37 51 1 0 -1 -14 -5 -30z m-4277 -20
c0 -17 4 -33 8 -36 10 -8 25 -142 19 -180 -3 -24 -11 -31 -33 -36 -19 -3 -29
-12 -29 -23 0 -10 -7 -23 -15 -30 -9 -7 -13 -15 -10 -18 8 -8 -16 -32 -31 -32
-8 0 -14 7 -14 17 0 24 48 101 70 113 11 6 17 16 14 25 -4 8 -2 15 3 15 5 0
10 14 11 30 2 28 1 29 -18 18 -16 -11 -23 -10 -37 5 -17 18 -17 20 15 46 35
30 40 41 17 41 -16 0 -20 35 -9 65 11 27 39 13 39 -20z m4073 15 c-13 -21 -38
-27 -38 -10 0 9 28 29 43 30 4 0 2 -9 -5 -20z m-3498 -44 c0 -2 -3 -11 -6 -20
-9 -23 -24 -20 -24 4 0 11 7 20 15 20 8 0 15 -2 15 -4z m2934 -21 c-18 -28
-40 -34 -30 -9 3 9 6 20 6 25 0 5 9 9 20 9 20 0 20 -1 4 -25z m-4220 -52 c14
-2 34 1 45 6 22 12 32 5 24 -16 -4 -11 -15 -13 -47 -8 -44 8 -66 21 -66 39 0
6 4 5 9 -3 5 -8 21 -16 35 -18z m4216 7 c0 -5 -5 -10 -11 -10 -5 0 -7 5 -4 10
3 6 8 10 11 10 2 0 4 -4 4 -10z m-3081 -26 c29 -37 29 -109 0 -125 -12 -6 -25
-7 -29 -2 -17 16 -17 153 -1 153 5 0 19 -12 30 -26z m490 -118 c-5 -17 -9 -32
-9 -33 0 -2 -18 -3 -39 -3 -39 0 -39 1 -36 33 3 20 15 40 32 54 l28 23 16 -22
c13 -16 14 -29 8 -52z m-1278 5 c-8 -5 -10 -14 -6 -21 5 -8 4 -11 -3 -6 -6 3
-15 -2 -21 -11 -6 -10 -11 -14 -11 -10 0 15 42 69 48 62 4 -3 0 -10 -7 -14z
m-44 -98 c-3 -10 -5 -4 -5 12 0 17 2 24 5 18 2 -7 2 -21 0 -30z m-959 15 c-3
-7 -13 -13 -23 -13 -10 0 -20 6 -22 13 -3 7 5 12 22 12 17 0 25 -5 23 -12z
m727 -94 l24 -16 -40 -53 c-22 -30 -52 -61 -66 -70 l-26 -17 8 33 c3 19 9 60
12 93 5 58 5 58 34 52 16 -3 40 -13 54 -22z m-691 -26 c16 -44 -6 -78 -49 -78
-35 0 -35 0 -35 45 0 31 5 47 18 54 28 17 56 8 66 -21z m-503 -94 c45 -4 117
-36 146 -63 13 -12 35 -21 53 -21 27 0 30 -3 25 -20 -8 -27 5 -43 74 -87 87
-56 221 -155 258 -189 18 -18 45 -35 60 -39 31 -7 43 -21 43 -47 0 -31 -43
-22 -63 12 -10 16 -24 30 -30 30 -7 0 -36 10 -65 22 -36 16 -54 30 -58 46 -11
41 -60 53 -110 27 -48 -25 -83 -19 -118 20 -22 23 -41 35 -59 35 -32 0 -35 15
-7 32 31 19 24 46 -15 65 -24 12 -35 23 -35 39 0 30 -14 33 -118 27 l-91 -5
-3 38 c-3 35 -6 39 -33 42 -49 4 -75 12 -75 22 0 15 81 29 135 23 28 -2 66 -7
86 -9z m1434 -54 c16 -47 14 -70 -4 -70 -10 0 -186 -83 -216 -102 -109 -68
-119 -87 -65 -135 17 -14 30 -30 30 -34 0 -19 -72 -79 -95 -79 -16 0 -25 -6
-25 -15 0 -8 -4 -15 -10 -15 -5 0 -10 4 -10 9 0 6 5 13 10 16 26 16 -9 37 -81
49 -20 4 -44 15 -54 26 -18 20 -145 54 -174 46 -9 -2 -26 -7 -38 -11 -19 -5
-23 -2 -23 14 0 11 6 23 13 28 6 4 89 10 182 13 141 4 176 8 198 23 34 22 35
56 2 87 -14 13 -23 30 -21 36 3 7 0 26 -6 42 -10 25 -9 35 5 56 22 32 37 33
37 2 0 -38 22 -49 72 -36 49 12 108 41 108 52 0 15 76 47 112 48 35 0 37 -2
53 -50z m2375 6 c0 -16 -18 -31 -27 -22 -8 8 5 36 17 36 5 0 10 -6 10 -14z
m567 -1 c19 -8 59 -15 89 -15 43 0 54 -3 59 -19 8 -25 -4 -69 -20 -79 -8 -4
-11 -17 -8 -34 3 -15 9 -25 14 -22 5 3 9 1 9 -5 0 -6 18 -48 40 -93 46 -93 48
-122 10 -126 -14 -2 -35 -8 -48 -14 -20 -10 -22 -17 -16 -55 5 -35 3 -44 -11
-49 -10 -4 -26 -2 -36 4 -10 7 -25 12 -33 12 -14 0 -26 42 -26 95 0 49 -8 63
-44 75 -33 11 -56 44 -56 80 0 10 -10 26 -21 34 -15 10 -20 22 -17 39 3 17 1
24 -7 20 -24 -8 -25 43 -4 93 12 27 26 55 31 62 14 16 51 15 95 -3z m-917 -10
c0 -8 -4 -15 -10 -15 -5 0 -7 7 -4 15 4 8 8 15 10 15 2 0 4 -7 4 -15z m-994
-67 c5 -16 1 -27 -16 -40 -31 -25 -40 -23 -40 10 0 49 42 72 56 30z m572 -150
c-6 -18 -28 -21 -28 -4 0 9 7 16 16 16 9 0 14 -5 12 -12z m3160 0 c-3 -7 -13
-15 -24 -17 -16 -3 -17 -1 -5 13 16 19 34 21 29 4z m-4828 -22 c0 -3 -4 -8
-10 -11 -5 -3 -10 -1 -10 4 0 6 5 11 10 11 6 0 10 -2 10 -4z m866 -31 c4 -8 3
-23 0 -32 -6 -15 -8 -15 -16 -3 -13 20 -12 50 0 50 6 0 13 -7 16 -15z m2994 1
c0 -3 -4 -8 -10 -11 -5 -3 -10 -1 -10 4 0 6 5 11 10 11 6 0 10 -2 10 -4z
m1660 -19 c0 -14 -20 -37 -32 -37 -4 0 -2 11 4 25 12 27 28 34 28 12z m-6626
-52 c22 -19 48 -35 58 -35 11 0 18 -7 18 -19 0 -22 -62 -36 -90 -21 -27 14
-55 110 -32 110 4 0 25 -16 46 -35z m5851 25 c-3 -5 -12 -10 -18 -10 -7 0 -6
4 3 10 19 12 23 12 15 0z m260 -10 c-3 -5 -11 -10 -16 -10 -6 0 -7 5 -4 10 3
6 11 10 16 10 6 0 7 -4 4 -10z m-5473 -102 c-7 -7 -12 -8 -12 -2 0 14 12 26
19 19 2 -3 -1 -11 -7 -17z m3154 -23 c6 -22 9 -43 7 -47 -2 -5 -24 -8 -49 -8
-52 0 -57 15 -21 67 28 42 48 38 63 -12z m-3077 -21 c-18 -22 -22 -11 -7 22
10 21 14 24 16 10 2 -9 -2 -24 -9 -32z m4229 29 c-5 -25 -28 -28 -28 -4 0 12
6 21 16 21 9 0 14 -7 12 -17z m-4315 -23 c-3 -11 -7 -20 -9 -20 -2 0 -4 9 -4
20 0 11 4 20 9 20 5 0 7 -9 4 -20z m842 10 c3 -5 -3 -10 -14 -10 -12 0 -21 5
-21 10 0 6 6 10 14 10 8 0 18 -4 21 -10z m2938 -32 c10 -14 17 -34 15 -44 -3
-16 -6 -15 -31 9 -27 28 -38 72 -15 65 6 -2 20 -16 31 -30z m-3636 -30 c-3 -7
-5 -2 -5 12 0 14 2 19 5 13 2 -7 2 -19 0 -25z m3310 -17 c7 -10 8 -18 2 -22
-11 -6 -79 7 -119 24 l-25 10 30 6 c45 9 98 0 112 -18z m2303 -25 c0 -8 -4
-18 -10 -21 -5 -3 -10 3 -10 14 0 12 5 21 10 21 6 0 10 -6 10 -14z m-4520 -25
c0 -5 -7 -14 -15 -21 -12 -10 -15 -10 -15 2 0 8 3 18 7 21 9 10 23 9 23 -2z"/>
<path d="M1834 2498 l-19 -23 23 19 c21 18 27 26 19 26 -2 0 -12 -10 -23 -22z"/>
<path d="M2593 2483 c9 -2 25 -2 35 0 9 3 1 5 -18 5 -19 0 -27 -2 -17 -5z"/>
<path d="M2165 2440 c-16 -16 -24 -30 -19 -30 6 0 20 14 32 30 13 17 21 30 19
30 -2 0 -16 -13 -32 -30z"/>
<path d="M2575 2430 c-14 -7 -8 -8 20 -3 22 3 42 7 44 9 9 8 -45 2 -64 -6z"/>
<path d="M2370 2390 c9 -4 31 -5 50 0 34 8 33 8 -15 9 -34 0 -45 -3 -35 -9z"/>
<path d="M2420 2355 c14 -8 32 -14 40 -14 9 0 4 6 -10 14 -14 8 -32 14 -40 14
-9 0 -4 -6 10 -14z"/>
<path d="M2034 2286 c15 -9 34 -16 41 -16 7 0 15 -5 17 -12 3 -7 11 -9 24 -4
19 8 19 8 -1 16 -17 6 -14 9 15 13 l35 4 -40 1 c-22 0 -58 3 -80 7 l-40 7 29
-16z"/>
<path d="M2618 2293 c7 -3 16 -2 19 1 4 3 -2 6 -13 5 -11 0 -14 -3 -6 -6z"/>
<path d="M2183 2273 c9 -2 23 -2 30 0 6 3 -1 5 -18 5 -16 0 -22 -2 -12 -5z"/>
<path d="M2300 2245 c59 -21 62 -23 35 -27 -22 -4 -16 -5 20 -7 61 -1 51 11
-34 38 -86 28 -103 25 -21 -4z"/>
<path d="M2115 2230 c3 -5 10 -10 16 -10 5 0 9 5 9 10 0 6 -7 10 -16 10 -8 0
-12 -4 -9 -10z"/>
<path d="M2340 2200 l-75 -6 66 -2 c74 -2 83 -7 68 -33 -6 -12 -6 -19 0 -19 5
0 12 14 16 30 7 31 25 32 25 1 0 -10 10 -26 23 -37 l22 -19 -19 22 c-10 12
-16 28 -14 35 4 12 -20 39 -32 36 -3 -1 -39 -4 -80 -8z"/>
<path d="M2759 2173 c-13 -16 -12 -17 4 -4 12 9 17 10 17 2 0 -7 5 -9 10 -6
11 7 4 25 -9 25 -5 0 -15 -8 -22 -17z"/>
<path d="M2250 2150 c0 -5 7 -10 16 -10 8 0 12 5 9 10 -3 6 -10 10 -16 10 -5
0 -9 -4 -9 -10z"/>
<path d="M2290 2150 c0 -6 17 -10 37 -10 43 0 41 5 -4 13 -19 4 -33 2 -33 -3z"/>
<path d="M2391 2104 c0 -11 3 -14 6 -6 3 7 2 16 -1 19 -3 4 -6 -2 -5 -13z"/>
<path d="M2470 2095 c13 -14 26 -25 28 -25 3 0 -5 11 -18 25 -13 14 -26 25
-28 25 -3 0 5 -11 18 -25z"/>
<path d="M1946 2029 c-26 -23 -46 -49 -46 -61 0 -18 3 -17 22 8 12 16 35 44
52 62 41 44 28 40 -28 -9z"/>
<path d="M1951 1984 c-12 -15 -21 -38 -20 -53 l1 -26 8 26 c4 14 15 38 25 52
22 35 13 35 -14 1z"/>
<path d="M2515 1990 c3 -5 8 -10 11 -10 2 0 4 5 4 10 0 6 -5 10 -11 10 -5 0
-7 -4 -4 -10z"/>
<path d="M2060 1935 c-29 -31 -37 -31 -59 -4 -14 18 -21 20 -37 11 -17 -10
-17 -11 9 -12 15 0 27 -4 27 -10 0 -5 8 -14 18 -19 15 -8 23 -3 45 25 33 40
31 45 -3 9z"/>
<path d="M2572 1937 c-15 -16 -18 -27 -12 -37 8 -12 10 -12 10 4 0 11 7 28 17
38 24 26 10 22 -15 -5z"/>
<path d="M2545 1637 c-48 -65 -115 -181 -115 -197 0 -8 14 10 31 40 18 30 52
86 76 123 49 77 55 98 8 34z"/>
<path d="M2587 1608 c-9 -29 -25 -82 -36 -118 -10 -36 -22 -73 -26 -82 -4 -10
-3 -18 2 -18 11 0 36 69 63 179 24 94 21 120 -3 39z"/>
<path d="M2215 1640 c-3 -5 -2 -10 4 -10 5 0 13 5 16 10 3 6 2 10 -4 10 -5 0
-13 -4 -16 -10z"/>
<path d="M2112 1567 c-23 -24 -30 -43 -12 -32 6 4 18 1 26 -6 12 -10 17 -10
27 1 8 8 8 11 1 7 -7 -4 -17 0 -24 8 -10 12 -10 18 0 30 20 24 6 17 -18 -8z"/>
<path d="M2724 2271 c11 -11 23 -21 28 -21 14 0 -1 19 -25 31 -22 12 -22 12
-3 -10z"/>
<path d="M6720 2130 c0 -5 5 -10 10 -10 6 0 10 5 10 10 0 6 -4 10 -10 10 -5 0
-10 -4 -10 -10z"/>
<path d="M3478 1853 c7 -3 16 -2 19 1 4 3 -2 6 -13 5 -11 0 -14 -3 -6 -6z"/>
<path d="M2790 1480 c0 -5 5 -10 11 -10 5 0 7 5 4 10 -3 6 -8 10 -11 10 -2 0
-4 -4 -4 -10z"/>
<path d="M3117 1690 c-3 -11 -1 -23 4 -26 5 -3 9 6 9 20 0 31 -6 34 -13 6z"/>
<path d="M3095 1640 c-3 -5 -1 -10 4 -10 6 0 11 5 11 10 0 6 -2 10 -4 10 -3 0
-8 -4 -11 -10z"/>
<path d="M1428 1133 c7 -3 16 -2 19 1 4 3 -2 6 -13 5 -11 0 -14 -3 -6 -6z"/>
<path d="M1096 1075 c-9 -26 -7 -32 5 -12 6 10 9 21 6 23 -2 3 -7 -2 -11 -11z"/>
<path d="M1070 1010 c-8 -5 -10 -10 -5 -10 6 0 17 5 25 10 8 5 11 10 5 10 -5
0 -17 -5 -25 -10z"/>
<path d="M1070 910 c-9 -6 -10 -10 -3 -10 6 0 15 5 18 10 8 12 4 12 -15 0z"/>
<path d="M1163 903 c9 -2 23 -2 30 0 6 3 -1 5 -18 5 -16 0 -22 -2 -12 -5z"/>
<path d="M5961 3732 c-19 -38 -31 -91 -32 -143 -1 -30 -6 -60 -13 -68 -9 -12
-8 -13 3 -7 10 7 12 3 6 -15 -5 -18 -4 -20 4 -9 8 12 11 10 19 -9 7 -20 10
-21 15 -8 8 22 25 22 23 1 0 -9 5 -19 12 -21 7 -3 11 1 10 9 -2 8 5 12 21 10
16 -3 21 0 16 9 -6 9 -4 10 6 3 19 -12 59 -12 52 0 -4 5 1 7 10 3 9 -3 19 -1
23 5 5 7 2 8 -6 3 -9 -5 -11 -4 -6 3 4 7 19 12 34 12 19 0 23 3 14 9 -11 7
-11 9 2 14 9 4 23 4 31 1 11 -5 13 -2 9 11 -6 14 -3 16 17 10 18 -5 20 -4 9 4
-11 8 -3 15 43 36 31 15 57 29 57 31 0 3 -4 2 -10 -1 -16 -10 -11 1 7 16 11
10 14 10 9 2 -15 -26 10 -12 47 26 37 39 48 58 25 46 -7 -4 -2 3 12 14 l25 21
-243 -1 c-216 0 -243 -2 -251 -17z"/>
<path d="M6459 3733 c-13 -16 -12 -17 4 -4 9 7 17 15 17 17 0 8 -8 3 -21 -13z"/>
<path d="M5645 3680 c-3 -5 -1 -10 4 -10 6 0 11 5 11 10 0 6 -2 10 -4 10 -3 0
-8 -4 -11 -10z"/>
<path d="M5510 3379 c0 -5 5 -7 10 -4 6 3 10 8 10 11 0 2 -4 4 -10 4 -5 0 -10
-5 -10 -11z"/>
<path d="M6415 3342 c-22 -26 -24 -32 -9 -22 20 13 49 49 42 54 -2 2 -16 -13
-33 -32z"/>
<path d="M6598 3023 c7 -3 16 -2 19 1 4 3 -2 6 -13 5 -11 0 -14 -3 -6 -6z"/>
<path d="M5108 2813 c6 -2 18 -2 25 0 6 3 1 5 -13 5 -14 0 -19 -2 -12 -5z"/>
<path d="M4047 1993 c-4 -3 -7 -13 -7 -22 1 -13 3 -13 11 2 11 19 8 33 -4 20z"/>
<path d="M5980 835 c0 -5 5 -17 10 -25 5 -8 10 -10 10 -5 0 6 -5 17 -10 25 -5
8 -10 11 -10 5z"/>
<path d="M5570 810 c0 -5 4 -10 9 -10 6 0 13 5 16 10 3 6 -1 10 -9 10 -9 0
-16 -4 -16 -10z"/>
<path d="M6260 546 c0 -8 9 -14 19 -13 15 1 17 4 9 14 -14 17 -28 16 -28 -1z"/>
<path d="M6261 115 l-21 -37 21 -5 c18 -5 20 -11 16 -39 l-6 -34 250 0 c137 0
249 2 249 4 0 2 -32 20 -70 40 -73 37 -125 45 -175 26 -32 -12 -75 -3 -75 17
0 17 -70 50 -126 59 -39 6 -42 4 -63 -31z"/>
<path d="M703 25 l-28 -24 53 -1 c49 0 52 1 52 25 0 34 -39 34 -77 0z"/>
</g>
</svg>
